<?xml version="1.0" encoding="iso-8859-1"?>
<!-- Uploaded to: SVG Repo, www.svgrepo.com, Generator: SVG Repo Mixer Tools -->
<svg height="800px" width="800px" version="1.1" id="Layer_1" xmlns="http://www.w3.org/2000/svg" xmlns:xlink="http://www.w3.org/1999/xlink" 
	 viewBox="0 0 501.333 501.333" xml:space="preserve">
<path style="fill:#2E4859;" d="M491.733,468.267c-12.8-44.8-44.8-80-86.4-96l-80-30.933l-19.2-40.533L250.667,320L195.2,300.8
	L176,341.333l-80,30.933c-40.533,16-72.533,51.2-86.4,96L0,501.333h250.667h250.667L491.733,468.267z"/>
<g>
	<polygon style="fill:#F6F7F8;" points="250.667,345.6 229.333,402.133 172.8,341.333 195.2,300.8 	"/>
	<polygon style="fill:#F6F7F8;" points="250.667,345.6 272,402.133 328.533,341.333 306.133,300.8 	"/>
</g>
<g>
	<ellipse style="fill:#FEC656;" cx="250.667" cy="190.933" rx="94.933" ry="154.667"/>
	<path style="fill:#FEC656;" d="M169.6,204.8c4.267,22.4,0,42.667-8.533,44.8c-8.533,2.133-19.2-14.933-23.467-38.4
		c-4.267-22.4,0-42.667,8.533-44.8C154.667,164.267,165.333,181.333,169.6,204.8z"/>
	<path style="fill:#FEC656;" d="M331.733,204.8c-4.267,22.4,0,42.667,8.533,44.8c8.533,2.133,19.2-14.933,23.467-38.4
		c4.267-22.4,0-42.667-8.533-44.8C346.667,164.267,336,181.333,331.733,204.8z"/>
</g>
<polygon style="fill:#3A5569;" points="35.2,66.133 275.2,0 466.133,77.867 245.333,114.133 "/>
<path style="fill:#FEC656;" d="M395.733,48c0,0,33.067-7.467,33.067,16s5.333,209.067,5.333,209.067h-39.467l8.533-220.8L395.733,48
	z"/>
<path style="fill:#637888;" d="M250.667,49.067c-52.267,0-94.933,7.467-94.933,18.133V160c0-10.667,42.667-19.2,94.933-19.2
	S345.6,149.333,345.6,160V66.133C345.6,56.533,302.933,49.067,250.667,49.067z"/>
</svg>